<svg xmlns="http://www.w3.org/2000/svg" viewBox="0 0 200 240" role="img" aria-label="Falownik Growatt">
  <defs>
    <linearGradient id="f" x1="0" y1="0" x2="0" y2="1"><stop offset="0" stop-color="#f6f7f8"/><stop offset="1" stop-color="#e1e4e7"/></linearGradient>
    <linearGradient id="s" x1="0" y1="0" x2="1" y2="0"><stop offset="0" stop-color="#b3b9c0"/><stop offset="1" stop-color="#b3b9c0" stop-opacity=".75"/></linearGradient>
    <linearGradient id="g" x1="0" y1="0" x2="1" y2="1"><stop offset="0" stop-color="#fff" stop-opacity=".35"/><stop offset=".5" stop-color="#fff" stop-opacity="0"/></linearGradient>
    <radialGradient id="sh" cx=".5" cy=".5" r=".5"><stop offset="0" stop-color="#000" stop-opacity=".45"/><stop offset="1" stop-color="#000" stop-opacity="0"/></radialGradient>
  </defs>
  <ellipse cx="100" cy="226" rx="78" ry="9" fill="url(#sh)"/>
  <path d="M150 30 L172 19 L172 199 L150 212 Z" fill="url(#s)"/>
  <line x1="155.2" y1="34.4" x2="155.2" y2="204.4" stroke="#000" stroke-opacity=".18" stroke-width="1.2"/><line x1="158.4" y1="32.8" x2="158.4" y2="202.8" stroke="#000" stroke-opacity=".18" stroke-width="1.2"/><line x1="161.6" y1="31.2" x2="161.6" y2="201.2" stroke="#000" stroke-opacity=".18" stroke-width="1.2"/><line x1="164.8" y1="29.6" x2="164.8" y2="199.6" stroke="#000" stroke-opacity=".18" stroke-width="1.2"/><line x1="168.0" y1="28.0" x2="168.0" y2="198.0" stroke="#000" stroke-opacity=".18" stroke-width="1.2"/>
  <path d="M30 30 L52 19 L172 19 L150 30 Z" fill="#f6f7f8" opacity=".92"/>
  <rect x="30" y="30" width="120" height="182" rx="9" fill="url(#f)"/>
  <rect x="30" y="30" width="120" height="182" rx="9" fill="url(#g)"/>
  <path d="M30 39 a9 9 0 0 1 9 -9 H141 a9 9 0 0 1 9 9 V104 H30 Z" fill="#23272b"/><rect x="58" y="50" width="64" height="34" rx="4" fill="#0f1417"/><rect x="62" y="55" width="40" height="5" rx="2" fill="#ffc20e" opacity=".85"/><rect x="62" y="65" width="54" height="3" rx="1.5" fill="#ffc20e" opacity=".45"/><rect x="62" y="72" width="44" height="3" rx="1.5" fill="#ffc20e" opacity=".45"/><rect x="30" y="104" width="120" height="4" fill="#ffc20e"/><circle cx="66" cy="132" r="3.2" fill="#2ecc71"/><circle cx="66" cy="132" r="6" fill="#2ecc71" opacity=".18"/><circle cx="82" cy="132" r="3.2" fill="#2ecc71"/><circle cx="82" cy="132" r="6" fill="#2ecc71" opacity=".18"/><circle cx="98" cy="132" r="3.2" fill="#00d4ff"/><circle cx="98" cy="132" r="6" fill="#00d4ff" opacity=".18"/><circle cx="114" cy="132" r="3.2" fill="#f7b731"/><circle cx="114" cy="132" r="6" fill="#f7b731" opacity=".18"/><text x="90" y="188" text-anchor="middle" font-family="Helvetica, Arial, sans-serif" font-size="11.5" font-weight="700" letter-spacing="1.8" fill="#23272b">GROWATT</text>
  <rect x="30.5" y="30.5" width="119" height="181" rx="8.5" fill="none" stroke="#000" stroke-opacity=".12"/>
</svg>
